<svg height="512pt" viewBox="-97 0 512 512" width="512pt" xmlns="http://www.w3.org/2000/svg"><path d="m203.035156 97.101562c-4.875 0-8.828125-3.949218-8.828125-8.824218v-52.96875c0-4.875 3.953125-8.824219 8.828125-8.824219s8.828125 3.949219 8.828125 8.824219v52.96875c0 4.875-3.953125 8.824218-8.828125 8.824218zm0 0" fill="#35495e"/><path d="m114.757812 97.101562c-4.875 0-8.828124-3.949218-8.828124-8.824218v-52.96875c0-4.875 3.953124-8.824219 8.828124-8.824219s8.828126 3.949219 8.828126 8.824219v52.96875c0 4.875-3.953126 8.824218-8.828126 8.824218zm0 0" fill="#35495e"/><path d="m35.308594 88.277344h247.175781c19.5 0 35.308594 15.808594 35.308594 35.308594v317.792968c0 19.5-15.808594 35.3125-35.308594 35.3125h-247.175781c-19.5 0-35.308594-15.8125-35.308594-35.3125v-317.792968c0-19.5 15.808594-35.308594 35.308594-35.308594zm0 0" fill="#4482c3"/><path d="m105.929688 0h105.933593c9.75 0 17.652344 7.90625 17.652344 17.65625s-7.902344 17.652344-17.652344 17.652344h-105.933593c-9.75 0-17.652344-7.902344-17.652344-17.652344s7.902344-17.65625 17.652344-17.65625zm0 0" fill="#2c3e50"/><path d="m61.792969 476.691406h52.964843v17.652344c0 9.75-7.902343 17.65625-17.65625 17.65625h-17.652343c-9.75 0-17.65625-7.90625-17.65625-17.65625zm0 0" fill="#2c3e50"/><path d="m203.035156 476.691406h52.964844v17.652344c0 9.75-7.90625 17.65625-17.65625 17.65625h-17.652344c-9.753906 0-17.65625-7.90625-17.65625-17.65625zm0 0" fill="#2c3e50"/><g fill="#285680"><path d="m52.964844 123.585938c9.75 0 17.65625 7.90625 17.65625 17.65625v282.480468c0 9.753906-7.90625 17.65625-17.65625 17.65625s-17.65625-7.902344-17.65625-17.65625v-282.480468c0-9.75 7.90625-17.65625 17.65625-17.65625zm0 0"/><path d="m123.585938 123.585938c9.75 0 17.65625 7.90625 17.65625 17.65625v282.480468c0 9.753906-7.90625 17.65625-17.65625 17.65625s-17.65625-7.902344-17.65625-17.65625v-282.480468c0-9.75 7.90625-17.65625 17.65625-17.65625zm0 0"/><path d="m194.207031 123.585938c9.75 0 17.65625 7.90625 17.65625 17.65625v282.480468c0 9.753906-7.90625 17.65625-17.65625 17.65625s-17.65625-7.902344-17.65625-17.65625v-282.480468c0-9.75 7.90625-17.65625 17.65625-17.65625zm0 0"/><path d="m264.828125 123.585938c9.75 0 17.65625 7.90625 17.65625 17.65625v282.480468c0 9.753906-7.90625 17.65625-17.65625 17.65625s-17.65625-7.902344-17.65625-17.65625v-282.480468c0-9.75 7.90625-17.65625 17.65625-17.65625zm0 0"/></g></svg>